<svg width="18" height="18" viewBox="0 0 18 18" fill="none" xmlns="http://www.w3.org/2000/svg">
<g id="bxl-linkedin">
<path id="Vector" d="M3.73768 5.39821C4.64398 5.39821 5.37868 4.66351 5.37868 3.75721C5.37868 2.85091 4.64398 2.11621 3.73768 2.11621C2.83138 2.11621 2.09668 2.85091 2.09668 3.75721C2.09668 4.66351 2.83138 5.39821 3.73768 5.39821Z" fill="#737373"/>
<path id="Vector_2" d="M6.92779 6.64102V15.7453H9.75454V11.243C9.75454 10.055 9.97804 8.90452 11.451 8.90452C12.9038 8.90452 12.9218 10.2628 12.9218 11.318V15.746H15.75V10.7533C15.75 8.30077 15.222 6.41602 12.3555 6.41602C10.9793 6.41602 10.0568 7.17127 9.67954 7.88602H9.64129V6.64102H6.92779ZM2.32129 6.64102H5.15254V15.7453H2.32129V6.64102Z" fill="#737373"/>
</g>
</svg>
