<svg width="18" height="18" viewBox="0 0 18 18" fill="none" xmlns="http://www.w3.org/2000/svg">
<g id="bxl-github">
<path id="Vector" fill-rule="evenodd" clip-rule="evenodd" d="M9.01956 1.5C4.88781 1.5 1.53906 4.84875 1.53906 8.9805C1.53906 12.285 3.68181 15.0892 6.65481 16.0792C7.02906 16.1467 7.16406 15.9165 7.16406 15.7185C7.16406 15.5408 7.15806 15.0697 7.15581 14.4465C5.07456 14.898 4.63506 13.443 4.63506 13.443C4.29606 12.579 3.80481 12.3488 3.80481 12.3488C3.12606 11.8845 3.85656 11.895 3.85656 11.895C4.60806 11.9475 5.00181 12.666 5.00181 12.666C5.66931 13.809 6.75381 13.479 7.17831 13.2877C7.24656 12.804 7.44156 12.474 7.65456 12.2872C5.99406 12.099 4.24806 11.457 4.24806 8.58975C4.24806 7.7745 4.53981 7.1055 5.01606 6.5835C4.94031 6.39375 4.68156 5.6325 5.09031 4.6035C5.09031 4.6035 5.71806 4.40175 7.14681 5.36925C7.75701 5.20325 8.38644 5.11852 9.01881 5.11725C9.6512 5.11828 10.2807 5.20301 10.8908 5.36925C12.3203 4.401 12.9473 4.6035 12.9473 4.6035C13.3561 5.6325 13.0996 6.39375 13.0216 6.5835C13.5016 7.1055 13.7896 7.77375 13.7896 8.58975C13.7896 11.4645 12.0421 12.096 10.3756 12.2812C10.6418 12.5122 10.8818 12.9683 10.8818 13.6658C10.8818 14.6663 10.8728 15.4733 10.8728 15.7185C10.8728 15.9187 11.0063 16.1512 11.3881 16.0778C14.3596 15.0863 16.5001 12.2843 16.5001 8.9805C16.5001 4.84875 13.1513 1.5 9.01956 1.5Z" fill="#737373"/>
</g>
</svg>
